<svg width="131" height="24" viewBox="0 0 131 24" fill="none" xmlns="http://www.w3.org/2000/svg">
<g clip-path="url(#clip0_628_867)">
<path d="M12.4957 16.1517H12.4584C12.1941 16.1368 11.9707 15.954 11.8999 15.7002L9.91165 8.38935L8.89144 11.8003C8.81325 12.0616 8.57495 12.2407 8.30315 12.2407H4.48667C4.14785 12.2407 3.87231 11.9645 3.87231 11.6249C3.87231 11.2853 4.14785 11.0092 4.48667 11.0092H7.84517L9.34942 5.97479C9.42761 5.71356 9.66591 5.53442 9.93772 5.53442H9.94516C10.2207 5.53442 10.459 5.72475 10.5297 5.98972L12.6074 13.6215L13.5084 11.3973C13.6015 11.1659 13.8287 11.0129 14.0781 11.0129H17.135C17.4739 11.0129 17.7494 11.2891 17.7494 11.6287C17.7494 11.9683 17.4739 12.2444 17.135 12.2444H14.4914L13.0654 15.7748C12.9723 16.0099 12.7452 16.1592 12.4957 16.1592V16.1517Z" fill="white"/>
<path d="M10.809 21.675C4.84785 21.675 0 16.816 0 10.8412C0 4.86641 4.84785 0.00744629 10.809 0.00744629C16.7701 0.00744629 21.6217 4.87014 21.6217 10.8412C21.6217 16.8123 16.7701 21.675 10.809 21.675ZM10.809 1.23525C5.52551 1.23525 1.22872 5.54189 1.22872 10.8375C1.22872 16.1331 5.52551 20.4397 10.809 20.4397C16.0925 20.4397 20.3893 16.1331 20.3893 10.8375C20.3893 5.54189 16.0925 1.23525 10.809 1.23525Z" fill="white"/>
<path d="M29.8243 10.8226L26.935 0.149292H28.6515L30.1892 6.26592C30.286 6.64284 30.3717 7.03469 30.4536 7.44147C30.5355 7.84825 30.6137 8.25876 30.6919 8.67301C30.7701 9.08725 30.8446 9.50522 30.9153 9.91947H30.6733C30.7515 9.50522 30.8297 9.08725 30.9079 8.67301C30.9898 8.25876 31.0717 7.84825 31.1573 7.44147C31.243 7.03469 31.336 6.64284 31.4366 6.26592L33.0153 0.149292H34.8025L36.3663 6.26592C36.4669 6.64284 36.56 7.03469 36.6456 7.44147C36.7312 7.84825 36.8169 8.25876 36.8988 8.67301C36.9807 9.08725 37.0626 9.50522 37.1371 9.91947H36.8802C36.9546 9.50522 37.0328 9.08725 37.1073 8.67301C37.1818 8.25876 37.2674 7.84825 37.353 7.44147C37.4424 7.03469 37.528 6.64284 37.6137 6.26592L39.1514 0.149292H40.8828L37.9823 10.8226H36.102L34.4078 4.49698C34.2775 4.00064 34.1584 3.45951 34.0504 2.87733C33.9424 2.29515 33.827 1.65326 33.7153 0.959119H34.0876C33.9685 1.62713 33.8605 2.24663 33.7637 2.81389C33.6669 3.38114 33.544 3.94466 33.3951 4.49698L31.7084 10.8226H29.8206H29.8243Z" fill="white"/>
<path d="M45.0232 11.0017C44.2264 11.0017 43.5376 10.8748 42.9493 10.621C42.361 10.3673 41.903 10.0053 41.5716 9.53505C41.2402 9.06482 41.0578 8.50504 41.0243 7.85568H42.6626C42.6961 8.2438 42.8227 8.56102 43.0386 8.81479C43.2546 9.06856 43.5376 9.25515 43.8876 9.38204C44.2339 9.50519 44.6099 9.56863 45.0158 9.56863C45.47 9.56863 45.8684 9.49773 46.2221 9.35591C46.5759 9.2141 46.8514 9.01258 47.0562 8.75507C47.261 8.49384 47.3652 8.19156 47.3652 7.84822C47.3652 7.53847 47.2759 7.2847 47.0971 7.08691C46.9184 6.88911 46.6764 6.72491 46.3748 6.59429C46.0732 6.46367 45.7269 6.34798 45.3434 6.24722L44.0998 5.90389C43.2285 5.66877 42.5472 5.32171 42.0594 4.86641C41.5716 4.40738 41.3259 3.81401 41.3259 3.08255C41.3259 2.46678 41.4897 1.92939 41.8211 1.46663C42.1525 1.0076 42.603 0.649337 43.1727 0.391834C43.7424 0.138064 44.3828 0.00744629 45.0977 0.00744629C45.8126 0.00744629 46.4679 0.134332 47.0227 0.391834C47.5775 0.649337 48.0131 0.996406 48.3296 1.4405C48.6461 1.8846 48.8136 2.39215 48.8248 2.9594H47.2386C47.1865 2.47052 46.9594 2.09359 46.5647 1.82863C46.1663 1.55993 45.6636 1.42558 45.0604 1.42558C44.6323 1.42558 44.2599 1.49275 43.9434 1.6271C43.6269 1.76145 43.3812 1.94431 43.2062 2.18316C43.0312 2.41827 42.9456 2.68697 42.9456 2.98925C42.9456 3.32886 43.0498 3.60129 43.2546 3.81028C43.4631 4.01926 43.7163 4.18347 44.0142 4.30289C44.312 4.42231 44.595 4.52307 44.8668 4.59398L45.9019 4.86641C46.2408 4.95225 46.5908 5.06793 46.9482 5.21348C47.3094 5.35902 47.6408 5.54935 47.9461 5.78073C48.2514 6.01211 48.4971 6.29947 48.687 6.63907C48.8769 6.98241 48.97 7.39292 48.97 7.87434C48.97 8.47518 48.8136 9.01258 48.5046 9.48653C48.1955 9.96049 47.745 10.3299 47.1567 10.6024C46.5684 10.8711 45.8573 11.0054 45.0232 11.0054V11.0017Z" fill="white"/>
<path d="M54.4695 10.9644C53.5498 10.9644 52.7269 10.7442 52.0009 10.3076C51.2748 9.87094 50.7014 9.24397 50.2844 8.42295C49.8674 7.60566 49.6588 6.62416 49.6588 5.48966C49.6588 4.35515 49.8674 3.3662 50.2844 2.5489C50.7014 1.73161 51.2748 1.10092 52.0009 0.66055C52.7269 0.220184 53.5498 0 54.4695 0C55.3891 0 56.2083 0.220184 56.9306 0.66055C57.653 1.10092 58.2226 1.72788 58.6397 2.5489C59.0567 3.3662 59.2652 4.34769 59.2652 5.48966C59.2652 6.63163 59.0567 7.60566 58.6397 8.42295C58.2226 9.24024 57.653 9.87094 56.9306 10.3076C56.2083 10.7442 55.3891 10.9644 54.4695 10.9644ZM54.4695 9.47535C55.0764 9.47535 55.6163 9.32235 56.0966 9.02006C56.5769 8.71777 56.953 8.26621 57.2322 7.67283C57.5115 7.07946 57.6492 6.35173 57.6492 5.48966C57.6492 4.62759 57.5115 3.88866 57.2322 3.29529C56.953 2.70191 56.5732 2.25035 56.0966 1.94806C55.6163 1.64578 55.0764 1.49277 54.4695 1.49277C53.8625 1.49277 53.3152 1.64578 52.8312 1.9518C52.3509 2.25781 51.9711 2.70938 51.6918 3.30275C51.4126 3.89613 51.2748 4.62759 51.2748 5.48966C51.2748 6.35173 51.4126 7.07573 51.6918 7.6691C51.9711 8.26248 52.3509 8.71031 52.8312 9.01633C53.3115 9.32235 53.8588 9.47535 54.4695 9.47535Z" fill="white"/>
<path d="M59.9317 10.8226V9.63954L63.5471 5.89269C63.9194 5.50084 64.2285 5.15377 64.4779 4.85522C64.7274 4.55293 64.9136 4.26557 65.0439 3.98941C65.1742 3.71325 65.2375 3.41469 65.2375 3.10121C65.2375 2.74295 65.1556 2.4332 64.9918 2.17569C64.8279 1.91819 64.6045 1.7204 64.3215 1.58232C64.0386 1.44424 63.7146 1.37333 63.3535 1.37333C62.9923 1.37333 62.6497 1.4517 62.3668 1.60471C62.0875 1.76145 61.8678 1.9779 61.7152 2.26153C61.5625 2.54515 61.488 2.87356 61.488 3.25795H59.9242C59.9242 2.6086 60.0732 2.03761 60.3748 1.54873C60.6763 1.05985 61.0859 0.679193 61.6035 0.410494C62.121 0.141796 62.7168 0.00744629 63.3833 0.00744629C64.0497 0.00744629 64.6529 0.141796 65.1668 0.406762C65.6806 0.675461 66.079 1.03746 66.3694 1.49275C66.6598 1.94805 66.805 2.46678 66.805 3.04523C66.805 3.43708 66.7343 3.81774 66.5854 4.19093C66.4402 4.56412 66.1832 4.9821 65.8221 5.45232C65.4572 5.91881 64.9434 6.4898 64.2806 7.15781L62.1918 9.34472V9.43055H66.9652V10.8263H59.9317V10.8226Z" fill="white"/>
<path d="M29.2845 13.6626V21.634H27.6573V13.6626H29.2845Z" fill="white"/>
<path d="M32.2893 18.1708V21.634H30.6882V15.6517H32.1999L32.226 17.1445H32.1292C32.2855 16.6444 32.5238 16.26 32.8403 15.9876C33.1605 15.7152 33.5701 15.5771 34.0765 15.5771C34.4898 15.5771 34.851 15.6667 35.1563 15.8458C35.4653 16.0249 35.7036 16.2862 35.8712 16.622C36.0387 16.9579 36.1243 17.3609 36.1243 17.8274V21.6303H34.5233V18.1036C34.5233 17.7341 34.4302 17.443 34.2366 17.2303C34.0467 17.0213 33.7823 16.9131 33.4435 16.9131C33.2201 16.9131 33.019 16.9616 32.844 17.0587C32.669 17.1557 32.5313 17.2975 32.4345 17.4841C32.3377 17.6707 32.2893 17.8946 32.2893 18.1633V18.1708Z" fill="white"/>
<path d="M40.4584 15.6517V16.8758H36.9174V15.6517H40.4584ZM37.7403 14.2299H39.3413V19.8875C39.3413 20.0778 39.3823 20.2159 39.4679 20.3092C39.5499 20.3987 39.6913 20.4472 39.8887 20.4472C39.9483 20.4472 40.0339 20.4398 40.1456 20.4249C40.2573 20.4099 40.3392 20.395 40.3951 20.3801L40.6259 21.5855C40.4472 21.6377 40.2722 21.675 40.0935 21.6974C39.9185 21.7198 39.7509 21.731 39.5908 21.731C38.9913 21.731 38.5371 21.5855 38.2169 21.2907C37.9004 20.9996 37.7403 20.5779 37.7403 20.033V14.2299Z" fill="white"/>
<path d="M44.0887 21.7534C43.4818 21.7534 42.9568 21.6303 42.5137 21.3802C42.0743 21.1302 41.7318 20.7756 41.4972 20.3166C41.2589 19.8576 41.1435 19.309 41.1435 18.6783C41.1435 18.0476 41.2626 17.5214 41.4972 17.0587C41.7318 16.5959 42.0631 16.2339 42.4951 15.9727C42.927 15.7114 43.4296 15.5808 44.0105 15.5808C44.4014 15.5808 44.7663 15.6443 45.1051 15.7674C45.444 15.8906 45.7418 16.0809 45.995 16.3309C46.2482 16.581 46.453 16.8982 46.5945 17.2751C46.7397 17.652 46.8105 18.0999 46.8105 18.6111V19.059H41.7988V18.0513H46.0286L45.2801 18.32C45.2801 18.0103 45.2317 17.7379 45.1387 17.5102C45.0456 17.2788 44.9041 17.1034 44.7179 16.9766C44.5317 16.8497 44.3009 16.7862 44.0254 16.7862C43.7498 16.7862 43.5115 16.8497 43.3179 16.9803C43.1243 17.1072 42.9754 17.2826 42.8786 17.5028C42.7818 17.7229 42.7296 17.973 42.7296 18.2529V18.9657C42.7296 19.3127 42.7892 19.6038 42.9046 19.8389C43.0201 20.074 43.1839 20.2494 43.3887 20.3689C43.5935 20.4883 43.8392 20.5443 44.1185 20.5443C44.3083 20.5443 44.4759 20.5181 44.6323 20.4659C44.7887 20.4137 44.9153 20.3315 45.0232 20.2271C45.1312 20.1226 45.2131 19.9919 45.2727 19.8389L46.7248 20.1114C46.628 20.4398 46.4605 20.7271 46.2222 20.9772C45.9839 21.2235 45.686 21.4175 45.3286 21.5519C44.9711 21.6862 44.5578 21.7534 44.0924 21.7534H44.0887Z" fill="white"/>
<path d="M50.5562 24C50.0573 24 49.6253 23.9366 49.253 23.8097C48.8807 23.6828 48.5828 23.5074 48.3519 23.2872C48.1211 23.0671 47.961 22.8133 47.8716 22.5334L49.2493 22.149C49.2977 22.261 49.3759 22.3692 49.4801 22.4737C49.5844 22.5782 49.7259 22.664 49.8971 22.7349C50.0721 22.8021 50.2881 22.8357 50.545 22.8357C50.9546 22.8357 51.2748 22.7424 51.5094 22.5558C51.7439 22.3692 51.8594 22.0781 51.8594 21.6825V20.5816H51.7365C51.6658 20.7421 51.5615 20.8988 51.4275 21.0481C51.2934 21.1974 51.1147 21.3205 50.895 21.4138C50.6753 21.5071 50.4035 21.5556 50.0796 21.5556C49.6328 21.5556 49.2232 21.4511 48.8583 21.2384C48.4934 21.0257 48.1993 20.7085 47.9796 20.2756C47.7599 19.8427 47.6519 19.2978 47.6519 18.6373C47.6519 17.9767 47.7636 17.3983 47.9871 16.9467C48.2105 16.4951 48.5046 16.1518 48.8732 15.9241C49.2418 15.6965 49.6477 15.5808 50.087 15.5808C50.4221 15.5808 50.7014 15.6368 50.9322 15.7487C51.1594 15.8607 51.3455 16.0025 51.4833 16.1705C51.6248 16.3384 51.7291 16.5026 51.7998 16.6593H51.8705V15.6517H53.4455V21.5855C53.4455 22.1229 53.3227 22.5707 53.0732 22.929C52.8237 23.2872 52.4849 23.5522 52.0493 23.7313C51.6136 23.9105 51.1184 24 50.5562 24ZM50.586 20.3278C50.8615 20.3278 51.0924 20.2606 51.2822 20.1263C51.4721 19.9919 51.6174 19.7942 51.7179 19.5404C51.8184 19.2866 51.8668 18.9806 51.8668 18.6223C51.8668 18.2641 51.8184 17.9618 51.7179 17.6968C51.6174 17.4318 51.4721 17.2266 51.2822 17.081C51.0924 16.9355 50.8578 16.8609 50.586 16.8609C50.3142 16.8609 50.0684 16.9355 49.8785 17.0885C49.6886 17.2415 49.5434 17.4468 49.4466 17.7117C49.3498 17.9767 49.3014 18.279 49.3014 18.6223C49.3014 18.9657 49.3498 19.2754 49.4466 19.5292C49.5434 19.783 49.6886 19.9807 49.8823 20.1188C50.0759 20.2569 50.3104 20.3278 50.586 20.3278Z" fill="white"/>
<path d="M54.812 21.6339V15.6517H56.361V16.6966H56.4243C56.536 16.3272 56.7184 16.0473 56.9753 15.8569C57.2322 15.6666 57.5301 15.5733 57.8652 15.5733C57.9471 15.5733 58.0365 15.577 58.1333 15.5882C58.2301 15.5957 58.312 15.6106 58.3828 15.6293V17.0623C58.312 17.0362 58.2078 17.0176 58.0737 17.0026C57.9397 16.9877 57.8094 16.9802 57.6902 16.9802C57.4482 16.9802 57.2285 17.0325 57.0349 17.137C56.8376 17.2415 56.6886 17.387 56.5769 17.5773C56.4689 17.7639 56.4131 17.9841 56.4131 18.2342V21.6377H54.812V21.6339Z" fill="white"/>
<path d="M60.7806 21.7534C60.4046 21.7534 60.0657 21.6862 59.7641 21.5518C59.4625 21.4175 59.228 21.2197 59.053 20.951C58.8817 20.686 58.7923 20.3539 58.7923 19.9583C58.7923 19.6262 58.8556 19.35 58.9785 19.1224C59.1014 18.8984 59.2689 18.7193 59.4812 18.5812C59.6934 18.4469 59.9317 18.3424 60.2035 18.2715C60.4753 18.2006 60.7546 18.1483 61.0487 18.1222C61.395 18.0849 61.6705 18.055 61.8827 18.0214C62.095 17.9916 62.2476 17.9431 62.3482 17.8759C62.4487 17.8087 62.4934 17.7117 62.4934 17.5848V17.5587C62.4934 17.387 62.4561 17.2415 62.3854 17.1258C62.3147 17.0101 62.2067 16.9168 62.0689 16.8571C61.9274 16.7936 61.7599 16.7638 61.5588 16.7638C61.3577 16.7638 61.1716 16.7936 61.0189 16.8571C60.8663 16.9205 60.7397 17.0026 60.6466 17.1071C60.5535 17.2116 60.479 17.3273 60.4343 17.4542L58.9673 17.2116C59.0716 16.8608 59.2429 16.566 59.4812 16.3234C59.7195 16.0808 60.0173 15.8942 60.371 15.7674C60.7248 15.6405 61.1232 15.5733 61.57 15.5733C61.8902 15.5733 62.203 15.6106 62.5045 15.689C62.8061 15.7674 63.078 15.8831 63.32 16.0435C63.5583 16.204 63.7519 16.413 63.8896 16.6705C64.0311 16.928 64.1019 17.2377 64.1019 17.5997V21.6302H62.5865V20.8017H62.5343C62.4375 20.9883 62.3109 21.1488 62.1508 21.2906C61.9907 21.4324 61.7971 21.5444 61.57 21.6265C61.3429 21.7086 61.0822 21.7496 60.7881 21.7496H60.7806V21.7534ZM61.2349 20.6226C61.4881 20.6226 61.7077 20.5741 61.9014 20.4733C62.0913 20.3726 62.2402 20.2382 62.3482 20.0665C62.4561 19.8949 62.5083 19.7045 62.5083 19.4956V18.8499C62.4636 18.8873 62.3891 18.9171 62.296 18.947C62.1992 18.9768 62.095 18.9992 61.9758 19.0216C61.8567 19.044 61.7413 19.0627 61.6296 19.0813C61.5141 19.1 61.4136 19.1149 61.3242 19.1261C61.1269 19.156 60.9556 19.2007 60.8067 19.2642C60.6577 19.3276 60.5423 19.4135 60.4604 19.5179C60.3785 19.6224 60.3375 19.7568 60.3375 19.921C60.3375 20.074 60.3748 20.2046 60.4567 20.3091C60.5349 20.4136 60.6429 20.492 60.7769 20.548C60.9109 20.6002 61.0673 20.6263 61.2423 20.6263H61.2349V20.6226Z" fill="white"/>
<path d="M68.4247 15.6517V16.8758H64.8838V15.6517H68.4247ZM65.7067 14.2299H67.3077V19.8875C67.3077 20.0778 67.3487 20.2159 67.4343 20.3092C67.5162 20.3987 67.6577 20.4472 67.8551 20.4472C67.9146 20.4472 68.0003 20.4398 68.112 20.4249C68.2237 20.4099 68.3056 20.395 68.3614 20.3801L68.5923 21.5855C68.4136 21.6377 68.2386 21.675 68.0598 21.6974C67.8848 21.7198 67.7173 21.731 67.5572 21.731C66.9577 21.731 66.5035 21.5855 66.1833 21.2907C65.8668 20.9996 65.7067 20.5779 65.7067 20.033V14.2299Z" fill="white"/>
<path d="M70.2678 14.8717C70.0258 14.8717 69.8173 14.7934 69.6497 14.6329C69.4785 14.4724 69.3928 14.2784 69.3928 14.0507C69.3928 13.8231 69.4785 13.629 69.6497 13.4685C69.821 13.3081 70.0258 13.226 70.2678 13.226C70.5098 13.226 70.7184 13.3043 70.8896 13.4685C71.0609 13.629 71.1503 13.8231 71.1503 14.0507C71.1503 14.2784 71.0646 14.4724 70.8896 14.6329C70.7184 14.7934 70.5098 14.8717 70.2678 14.8717ZM69.4673 21.634V15.6517H71.0683V21.634H69.4673Z" fill="white"/>
<path d="M75.0971 21.7534C74.4976 21.7534 73.98 21.6228 73.5444 21.3653C73.105 21.1078 72.7699 20.7458 72.5316 20.283C72.2933 19.8203 72.1779 19.2829 72.1779 18.6709C72.1779 18.0588 72.2971 17.5102 72.5316 17.0475C72.7662 16.5847 73.105 16.2264 73.5444 15.9652C73.9838 15.7077 74.5013 15.5771 75.0971 15.5771C75.6928 15.5771 76.2178 15.7077 76.6534 15.9652C77.0891 16.2227 77.4242 16.5847 77.6625 17.0475C77.9008 17.5102 78.0162 18.0514 78.0162 18.6709C78.0162 19.2904 77.897 19.8203 77.6625 20.283C77.4279 20.7458 77.0891 21.1041 76.6534 21.3653C76.2178 21.6228 75.7002 21.7534 75.0971 21.7534ZM75.0971 20.4883C75.38 20.4883 75.6221 20.4099 75.8119 20.2495C76.0056 20.089 76.147 19.8725 76.2439 19.5964C76.3407 19.3202 76.3891 19.0067 76.3891 18.6634C76.3891 18.3201 76.3407 17.9954 76.2439 17.7229C76.147 17.4468 76.0018 17.2341 75.8119 17.0736C75.6183 16.9168 75.38 16.8385 75.0971 16.8385C74.8141 16.8385 74.5758 16.9168 74.3859 17.0736C74.196 17.2303 74.0508 17.4468 73.9577 17.7229C73.8609 17.9991 73.8125 18.3126 73.8125 18.6634C73.8125 19.0142 73.8609 19.3202 73.9577 19.5964C74.0545 19.8725 74.196 20.089 74.3859 20.2495C74.5758 20.4062 74.8141 20.4883 75.0971 20.4883Z" fill="white"/>
<path d="M80.7343 18.1708V21.634H79.1332V15.6517H80.6449L80.671 17.1445H80.5742C80.7305 16.6444 80.9688 16.26 81.2853 15.9876C81.6055 15.7152 82.0151 15.5771 82.5215 15.5771C82.9348 15.5771 83.296 15.6667 83.6013 15.8458C83.9103 16.0249 84.1486 16.2862 84.3162 16.622C84.4837 16.9579 84.5694 17.3609 84.5694 17.8274V21.6303H82.9683V18.1036C82.9683 17.7341 82.8752 17.443 82.6816 17.2303C82.4917 17.0213 82.2273 16.9131 81.8885 16.9131C81.6651 16.9131 81.4641 16.9616 81.2891 17.0587C81.1141 17.1557 80.9763 17.2975 80.8795 17.4841C80.7827 17.6707 80.7343 17.8946 80.7343 18.1633V18.1708Z" fill="white"/>
<path d="M88.7284 21.634V13.6626H91.5805C92.1911 13.6626 92.705 13.7783 93.1108 14.0059C93.5204 14.2336 93.8257 14.5433 94.0305 14.9315C94.2315 15.3196 94.3358 15.7599 94.3358 16.2526C94.3358 16.7452 94.2353 17.1855 94.0305 17.5774C93.8257 17.9692 93.5204 18.2753 93.1108 18.5029C92.7012 18.7306 92.1874 18.8425 91.573 18.8425H89.6257V17.8088H91.4576C91.8486 17.8088 92.1651 17.7416 92.4071 17.6072C92.6491 17.4729 92.8241 17.2863 92.9395 17.0512C93.0512 16.8161 93.1071 16.5511 93.1071 16.2526C93.1071 15.954 93.0512 15.6853 92.9395 15.4539C92.8278 15.2188 92.6491 15.0359 92.4071 14.9053C92.1651 14.7747 91.8449 14.7075 91.4502 14.7075H89.9571V21.6377H88.7284V21.634Z" fill="white"/>
<path d="M96.8268 13.6626V21.634H95.6539V13.6626H96.8268Z" fill="white"/>
<path d="M100.077 21.7683C99.7012 21.7683 99.3587 21.6974 99.0533 21.5556C98.748 21.4138 98.506 21.2085 98.3273 20.9361C98.1486 20.6637 98.0592 20.3315 98.0592 19.9397C98.0592 19.6001 98.1225 19.3239 98.2528 19.1037C98.3831 18.8873 98.5581 18.7119 98.7815 18.585C99.0049 18.4581 99.2507 18.3611 99.5225 18.2976C99.7943 18.2342 100.07 18.1857 100.353 18.1521C100.707 18.1073 100.993 18.0737 101.213 18.0476C101.433 18.0215 101.596 17.9767 101.701 17.9132C101.805 17.8498 101.857 17.749 101.857 17.6109V17.5774C101.857 17.3534 101.816 17.1631 101.73 17.0101C101.645 16.8571 101.518 16.7377 101.347 16.6556C101.176 16.5735 100.967 16.5287 100.714 16.5287C100.461 16.5287 100.23 16.5697 100.044 16.6481C99.8576 16.7265 99.7049 16.831 99.5895 16.9541C99.4741 17.0773 99.3884 17.2079 99.3289 17.346L98.223 17.0586C98.3571 16.7004 98.5507 16.413 98.8039 16.1965C99.0571 15.9801 99.3475 15.8196 99.6751 15.7189C100.003 15.6181 100.342 15.5696 100.688 15.5696C100.93 15.5696 101.187 15.5994 101.459 15.6554C101.73 15.7114 101.984 15.8159 102.222 15.9652C102.46 16.1144 102.654 16.3234 102.803 16.5959C102.952 16.8683 103.026 17.2191 103.026 17.6557V21.6265H101.891V20.8092H101.831C101.753 20.9622 101.637 21.1115 101.485 21.257C101.332 21.4026 101.138 21.522 100.904 21.619C100.669 21.7161 100.394 21.7608 100.07 21.7608L100.077 21.7683ZM100.338 20.8204C100.658 20.8204 100.934 20.757 101.161 20.6338C101.388 20.5106 101.563 20.3427 101.686 20.1375C101.805 19.9322 101.868 19.712 101.868 19.4806V18.7156C101.824 18.7566 101.745 18.7977 101.626 18.8313C101.507 18.8649 101.369 18.8947 101.217 18.9208C101.064 18.947 100.915 18.9694 100.774 18.988C100.632 19.0067 100.513 19.0216 100.42 19.0291C100.2 19.0589 99.9991 19.1074 99.8129 19.1746C99.6305 19.2418 99.4853 19.3388 99.3736 19.462C99.2656 19.5851 99.2097 19.7531 99.2097 19.9583C99.2097 20.1486 99.2581 20.3054 99.3549 20.436C99.4517 20.5629 99.5858 20.6599 99.7533 20.7234C99.9209 20.7868 100.115 20.8204 100.334 20.8204H100.338Z" fill="white"/>
<path d="M107.167 15.6517V16.6108H103.931V15.6517H107.167ZM104.802 14.2299H105.975V20.0181C105.975 20.2569 106.027 20.4323 106.128 20.5443C106.228 20.6562 106.396 20.7122 106.627 20.7122C106.686 20.7122 106.768 20.7047 106.869 20.6898C106.969 20.6749 107.055 20.66 107.126 20.6488L107.334 21.5892C107.211 21.6303 107.077 21.6638 106.932 21.6825C106.791 21.7012 106.649 21.7124 106.511 21.7124C105.971 21.7124 105.551 21.5706 105.253 21.2944C104.955 21.0145 104.806 20.6226 104.806 20.1151V14.2299H104.802Z" fill="white"/>
<path d="M110.998 15.6517V16.6108H107.356V15.6517H110.998ZM108.492 21.634V14.965C108.492 14.5955 108.574 14.2821 108.742 14.0358C108.909 13.7895 109.125 13.5991 109.397 13.4722C109.669 13.3491 109.959 13.2856 110.272 13.2856C110.51 13.2856 110.715 13.3043 110.883 13.3454C111.05 13.3864 111.177 13.42 111.255 13.4461L110.983 14.3978C110.927 14.3791 110.856 14.3604 110.771 14.3418C110.685 14.3231 110.585 14.3119 110.458 14.3119C110.179 14.3119 109.978 14.3828 109.855 14.5209C109.732 14.659 109.669 14.8605 109.669 15.1255V21.6302H108.492V21.634Z" fill="white"/>
<path d="M114.405 21.7572C113.846 21.7572 113.359 21.6303 112.938 21.3728C112.521 21.1153 112.193 20.757 111.962 20.2905C111.731 19.8277 111.616 19.2866 111.616 18.6746C111.616 18.0625 111.731 17.5102 111.962 17.0437C112.193 16.5772 112.517 16.219 112.938 15.9615C113.355 15.704 113.846 15.5771 114.405 15.5771C114.963 15.5771 115.459 15.704 115.876 15.9615C116.293 16.219 116.62 16.581 116.851 17.0437C117.082 17.5102 117.197 18.0514 117.197 18.6746C117.197 19.2978 117.082 19.8277 116.851 20.2905C116.62 20.7533 116.296 21.1153 115.876 21.3728C115.459 21.6303 114.967 21.7572 114.405 21.7572ZM114.405 20.7607C114.77 20.7607 115.068 20.6637 115.306 20.4734C115.544 20.283 115.719 20.0293 115.835 19.7121C115.95 19.3948 116.01 19.0478 116.01 18.6709C116.01 18.2939 115.95 17.9394 115.835 17.6184C115.719 17.2975 115.544 17.0437 115.306 16.8534C115.068 16.6631 114.77 16.566 114.405 16.566C114.04 16.566 113.75 16.6631 113.515 16.8534C113.28 17.0437 113.105 17.2975 112.99 17.6147C112.875 17.9319 112.815 18.2827 112.815 18.6671C112.815 19.0515 112.875 19.3911 112.99 19.7083C113.105 20.0255 113.28 20.2756 113.515 20.4696C113.75 20.66 114.047 20.757 114.405 20.757V20.7607Z" fill="white"/>
<path d="M118.501 21.634V15.6517H119.636V16.6145H119.7C119.811 16.2861 120.001 16.0286 120.277 15.8458C120.552 15.6629 120.861 15.5659 121.211 15.5659C121.286 15.5659 121.371 15.5659 121.468 15.5733C121.565 15.5808 121.643 15.5882 121.71 15.5957V16.719C121.665 16.7041 121.587 16.6892 121.464 16.678C121.342 16.6668 121.222 16.6556 121.096 16.6556C120.824 16.6556 120.582 16.7116 120.366 16.8272C120.15 16.9429 119.979 17.0997 119.86 17.3012C119.74 17.5027 119.677 17.7341 119.677 17.9991V21.634H118.501Z" fill="white"/>
<path d="M122.868 21.6339V15.6517H123.985L124.019 17.0362H123.929C124.015 16.6966 124.145 16.4205 124.324 16.2003C124.503 15.9838 124.711 15.8196 124.95 15.7114C125.188 15.6032 125.437 15.5472 125.698 15.5472C126.134 15.5472 126.484 15.6815 126.748 15.9502C127.012 16.2189 127.195 16.5959 127.288 17.0773H127.139C127.217 16.7489 127.351 16.4727 127.545 16.2413C127.738 16.0137 127.969 15.8383 128.241 15.7226C128.513 15.6032 128.803 15.5472 129.112 15.5472C129.466 15.5472 129.782 15.6256 130.069 15.7786C130.356 15.9316 130.583 16.1592 130.751 16.4615C130.918 16.7638 131 17.1444 131 17.596V21.6302H129.827V17.7117C129.827 17.3124 129.715 17.025 129.492 16.8459C129.269 16.6668 129.008 16.5772 128.703 16.5772C128.457 16.5772 128.245 16.6294 128.066 16.7339C127.887 16.8384 127.75 16.9802 127.656 17.1631C127.56 17.346 127.511 17.5587 127.511 17.7975V21.6302H126.353V17.6371C126.353 17.3161 126.253 17.0586 126.048 16.8683C125.843 16.6742 125.582 16.5809 125.266 16.5809C125.05 16.5809 124.849 16.6332 124.659 16.7339C124.469 16.8347 124.324 16.984 124.209 17.1818C124.097 17.3796 124.041 17.6221 124.041 17.9132V21.6302H122.868V21.6339Z" fill="white"/>
</g>
<defs>
<clipPath id="clip0_628_867">
<rect width="131" height="24" fill="white"/>
</clipPath>
</defs>
</svg>
